<?xml version="1.0" encoding="utf-8" ?>
<svg xmlns="http://www.w3.org/2000/svg" xmlns:xlink="http://www.w3.org/1999/xlink" width="1509" height="530">
	<path fill="#FEFEFE" transform="scale(1.03694 1.03694)" d="M1267.73 154.452C1270.38 154.119 1273.04 153.729 1275.69 154.21C1280.45 155.07 1285.77 157.811 1288.53 161.845C1290.32 164.469 1291.42 167.869 1290.87 171.029C1291 171.348 1291.09 171.652 1291.16 171.99C1291.74 174.778 1290.33 178.41 1288.83 180.701C1285.9 185.166 1281.3 188.133 1276.14 189.248C1273.92 189.932 1270.86 189.529 1268.62 188.973C1263.8 187.777 1260.01 184.798 1257.49 180.551C1255.04 176.404 1254.18 171.376 1255.45 166.695C1257.35 159.697 1262.05 157.754 1267.73 154.452Z"/>
	<path fill="#FEFEFE" transform="scale(1.03694 1.03694)" d="M1052.43 312.099C1057.65 311.4 1062.72 312.337 1067.15 315.232Q1067.94 315.747 1068.68 316.338Q1069.41 316.928 1070.08 317.589Q1070.76 318.249 1071.36 318.973Q1071.97 319.697 1072.5 320.477Q1073.03 321.257 1073.48 322.086Q1073.93 322.914 1074.29 323.784Q1074.66 324.653 1074.94 325.554Q1075.21 326.455 1075.4 327.379Q1075.58 328.289 1075.66 329.212Q1075.75 330.135 1075.74 331.062Q1075.74 331.989 1075.64 332.911Q1075.54 333.832 1075.36 334.74Q1075.17 335.648 1074.89 336.532Q1074.61 337.417 1074.25 338.27Q1073.89 339.123 1073.44 339.936Q1072.99 340.748 1072.47 341.513C1068.8 346.94 1063.54 349.156 1057.32 350.347C1054.48 350.91 1049.5 349.303 1046.9 348.108C1042.67 346.163 1039.72 342.18 1038.13 337.898C1036.37 333.158 1036.37 327.788 1038.54 323.177C1041.49 316.915 1046.21 314.386 1052.43 312.099Z"/>
	<path fill="#FEFEFE" transform="scale(1.03694 1.03694)" d="M1260.09 217.653C1265.72 216.694 1280.89 216.172 1286.13 218.388C1286.78 219.623 1287.03 220.83 1287.16 222.21C1288.44 236.346 1287.14 256.103 1287.2 270.91L1287.3 318.014C1287.31 325.984 1287.8 334.276 1287.23 342.207C1287.06 344.501 1286.87 345.247 1285.41 346.995C1279.32 348.998 1265.37 347.478 1258.42 347.351C1258.47 347.228 1258.52 347.104 1258.57 346.982C1260.88 341.636 1259.3 257.257 1259.28 244.785C1259.26 236.417 1258.03 225.673 1260.09 217.653Z"/>
	<path fill="#FEFEFE" transform="scale(1.03694 1.03694)" d="M147.768 143.476L366.648 143.635C366.998 149.695 366.754 155.831 366.701 161.9C293.806 160.827 220.721 161.705 147.81 161.889C147.575 155.757 147.711 149.611 147.768 143.476Z"/>
	<path fill="#FEFEFE" transform="scale(1.03694 1.03694)" d="M225.424 94.6366Q242.784 95.2107 260.15 94.9098C267.688 94.7717 275.657 94.0807 283.152 94.8141C286.957 95.1864 291.78 95.8984 294.307 99.0503C298.907 104.789 297.569 111.742 296.778 118.441C315.051 119.013 333.449 118.756 351.732 118.641C358.723 118.597 366.429 117.702 373.356 118.345C375.314 118.527 377.442 119.186 379.124 120.215C380.875 121.285 381.416 122.391 381.891 124.274C381.673 125.152 381.383 125.843 380.725 126.481C378.981 128.175 376.693 129.16 374.3 129.479C366.063 130.578 356.614 129.577 348.249 129.567L289.33 129.522C274.478 129.524 137.904 130.548 133.871 128.937C131.543 128.008 130.398 126.212 129.459 124.004C129.545 122.716 129.421 121.996 130.382 121.015C132.064 119.297 135.07 118.866 137.383 118.624C145.395 117.787 153.907 118.561 161.985 118.558L215.307 118.497C214.408 112.536 213.574 104.799 217.033 99.4817C219.095 96.3109 221.941 95.391 225.424 94.6366Z"/>
	<path fill="#FEFEFE" transform="scale(1.03694 1.03694)" d="M598.364 215.522C601.049 215.472 604.046 215.737 606.622 216.543C608.896 217.254 610.694 219.076 611.723 221.188C613.935 225.727 613.143 235.332 611.433 240.03C608.075 242.017 594.408 242.252 589.25 243.582C579.338 246.139 570.321 251.78 560.375 254.234C560.806 254.884 561.123 255.596 561.345 256.344C562.596 260.549 562.244 335.056 561.616 343.711C561.523 344.983 561.125 346.048 560.499 347.153C554.376 348.488 546.008 347.805 539.672 347.549C536.342 347.415 535.204 347.296 532.943 344.849C533.007 344.714 533.076 344.581 533.136 344.444C534.218 341.969 534.59 220.649 533.259 217.407C538.251 217.194 544.126 216.389 549.025 217.364C551.614 217.879 553.86 218.937 555.252 221.282C556.877 224.022 556.976 230.585 556.234 233.658C559.744 232.633 563.6 229.328 566.749 227.33C577.102 220.76 586.358 217.501 598.364 215.522Z"/>
	<path fill="#FEFEFE" transform="scale(1.03694 1.03694)" d="M461.493 178.217L462.873 178.406C465.327 183.088 463.844 210 463.781 217.24Q485.375 217.106 506.966 217.434C507.811 225.248 507.407 233.553 507.014 241.401C492.688 242.096 478.08 241.523 463.723 241.527C464.841 263.564 463.097 285.827 463.903 307.89C464.051 311.937 465.03 320.132 468.334 322.893C475.116 328.563 497.999 324.743 506.593 323.885C508.004 330.25 508.8 336.865 509.837 343.308C506.852 344.27 503.743 344.986 500.711 345.798C492.641 347.951 483.862 349.309 475.519 349.485C465.184 349.703 453.402 348.395 445.606 340.869C441.241 336.655 438.807 331.078 437.536 325.223C435.064 313.831 436.084 301.314 436.11 289.7Q436.293 265.601 435.969 241.503L408.502 241.498C408.301 235.164 408.395 228.853 408.51 222.519Q422.315 219.97 436.206 217.942Q435.932 202.744 436.302 187.548C444.247 183.794 453.212 181.193 461.493 178.217Z"/>
	<path fill="#FEFEFE" transform="scale(1.03694 1.03694)" d="M812.968 215.523C824.181 215.064 849.362 217.498 858.785 223.638C859.143 224.343 859.407 225.038 859.431 225.839C859.556 230.072 857.583 239.949 854.656 243.058C847.299 240.87 838.642 240.34 830.981 240.087C821.445 239.772 802.802 238.774 795.563 245.806C793.805 247.513 791.867 250.266 791.879 252.815C791.928 263.691 828.591 270.248 837.315 273.48C843.727 275.856 850.147 279.02 855.051 283.886C861.439 290.223 863.549 298.026 863.512 306.823C863.463 318.343 860.736 328.097 852.336 336.337C840.719 347.735 824.508 349.534 809.024 349.394C793.906 349.335 778.184 343.613 763.861 339.3C764.09 338.983 764.308 338.66 764.504 338.321C766.233 335.318 769.235 323.001 768.252 319.589C783.981 321.515 815.503 329.801 829.739 321.156C831.891 319.85 834.069 317.753 834.663 315.243C835.626 313.271 835.771 310.088 835.496 307.911C835.193 305.517 834.156 303.107 832.293 301.515C820.292 291.26 793.137 291.347 777.344 278.928C769.774 272.975 767.351 265.553 766.298 256.205C765.327 247.589 767.595 238.649 773.061 231.85C782.865 219.656 798.352 217.15 812.968 215.523Z"/>
	<path fill="#FEFEFE" transform="scale(1.03694 1.03694)" d="M1391.15 215.523C1401 214.981 1412.51 216.914 1420.91 222.305C1429.99 228.127 1435.28 237.52 1437.5 247.898C1440.54 262.066 1438.61 287.383 1438.65 302.804C1438.68 316.22 1439.82 330.439 1438.62 343.757C1438.5 345.101 1438.12 346.146 1437.39 347.282C1428.93 348.452 1419.12 347.55 1410.52 347.296C1410.6 347.168 1410.68 347.043 1410.74 346.911C1411.93 344.612 1411.25 268.95 1410.93 261.659C1410.83 259.366 1410.47 257.131 1409.76 254.945C1408.03 249.649 1404.58 245.703 1399.61 243.205C1387.59 237.164 1373.21 242.114 1361.39 246.059C1359.07 248.263 1353.91 249.623 1350.89 250.658Q1351.18 251.345 1351.39 252.058C1352.62 256.286 1352.2 333.887 1351.66 343.375C1351.58 344.787 1351.22 345.922 1350.52 347.154C1342.49 348.936 1331.3 347.514 1322.93 347.312C1322.99 347.191 1323.04 347.069 1323.09 346.948C1325.39 342.027 1323.86 259.081 1323.79 246.687C1323.75 239.566 1322.19 224.72 1324.85 218.474C1328.98 215.87 1338.62 217.272 1343.43 217.42C1344 217.894 1344.51 218.435 1344.84 219.098C1346.27 221.917 1347.52 228.12 1346.46 231.068C1350.36 229.407 1354.09 227.114 1357.92 225.267C1368.8 220.018 1379.2 217.167 1391.15 215.523Z"/>
	<path fill="#FEFEFE" transform="scale(1.03694 1.03694)" d="M915.292 150.19L918.339 150.192L919.194 151.198C919.886 160.695 920.771 223.186 918.208 228.629C927.266 225.992 935.02 220.179 944.522 217.94C958.744 214.59 975.49 213.986 988.316 222.051C997.42 227.775 1002.82 237.235 1005.15 247.543C1008.55 262.559 1006.51 286.096 1006.57 302.226C1006.62 315.834 1007.67 330.209 1006.53 343.74C1006.41 345.079 1006.06 346.113 1005.34 347.255C996.833 348.619 986.62 347.511 977.983 347.288C978.225 346.901 978.417 346.496 978.525 346.049C979.967 340.077 978.659 325.371 978.645 318.492C978.608 299.708 979.575 280.456 978.482 261.727C978.389 260.126 978.117 258.826 977.295 257.421C977.629 256.374 977.49 255.279 977.204 254.232C975.981 249.753 972.097 245.982 968.195 243.708C951.645 234.061 934.072 246.452 918.244 250.554C918.711 251.254 919.099 252.009 919.263 252.843C920.632 259.802 919.492 276.26 919.498 284.19C919.511 303.127 920.684 324.984 919.372 343.61C919.273 345.004 918.864 346.096 918.049 347.232C909.459 348.465 899.581 347.52 890.895 347.3C890.944 347.21 890.997 347.122 891.043 347.029C891.881 345.329 892.466 162.508 890.892 157.979C899.035 155.429 907.226 152.975 915.292 150.19Z"/>
	<path fill="#FEFEFE" transform="scale(1.03694 1.03694)" d="M678.443 215.522Q682.259 215.357 686.071 215.594Q689.884 215.831 693.65 216.467C728.411 222.131 733.338 244.903 733.267 275.572L732.985 306.574C732.933 312.105 732.134 320 735.641 324.679C739.067 329.25 747.303 329.084 752.526 329.807C752.999 330.682 753.229 331.498 753.344 332.487C753.869 336.998 753.821 344.713 750.877 348.379C748.791 348.838 746.645 349.19 744.514 349.332C730.891 350.24 723.484 347.737 714.5 337.121C712.579 334.851 711.345 332.114 709.048 330.173C708.935 330.078 708.821 329.986 708.707 329.893C706.999 334.561 696.294 340.963 692.04 343.05C675.526 351.15 660.884 350.492 643.909 344.688C637.96 341.074 632.648 336.461 629.04 330.438C624.185 322.331 623.499 312.289 625.792 303.256C632.854 275.433 670.261 272.895 693.584 267.452C697.22 266.604 702.104 266.518 705.265 264.654C706.431 262.72 706.616 261.533 706.121 259.254C705.012 254.154 701.905 247.587 697.452 244.655C682.159 234.587 652.304 241.989 635.58 245.439C635.631 245.305 635.688 245.173 635.733 245.037C636.507 242.681 632.003 229.924 630.683 227.477C646.883 221.626 661.296 217.62 678.443 215.522ZM701.951 282.983L701.482 283.181C689.205 288.263 657.87 290.734 652.438 303.547C650.701 307.643 651.308 312.585 653.058 316.597C654.115 319.017 656.038 320.839 657.804 322.753C669.689 327.157 680.413 327.117 692.041 321.79C695.171 320.356 704.049 315.359 705.385 312.449C707.424 306.978 706.353 289.629 706.029 283.151C704.697 282.399 703.445 282.829 701.951 282.983Z"/>
	<path fill="#FEFEFE" transform="scale(1.03694 1.03694)" d="M1127.64 150.191L1130.62 150.051L1131.48 150.946C1132.29 159.963 1133.01 221.692 1130.6 226.813C1136.36 225.232 1142.17 221.921 1147.85 219.83C1162.99 214.259 1179.78 213.777 1194.58 220.673C1208.91 227.351 1219.57 240.623 1224.83 255.335C1231.84 274.95 1230.99 298.096 1221.96 316.929C1216.97 327.34 1207.31 339.377 1196.07 343.344C1195.41 344.419 1193.34 345.16 1192.16 345.64C1175.29 352.509 1157.9 349.891 1142.26 341.435C1137.07 338.631 1132.15 334.994 1126.74 332.675C1126.77 332.904 1126.8 333.133 1126.83 333.363C1127.16 337.101 1126.22 344.395 1123.9 347.28C1117.08 348.026 1109.76 347.505 1102.91 347.298C1103.12 346.941 1103.32 346.592 1103.47 346.205C1104.98 342.4 1104.63 178.764 1103.94 161.013C1103.9 159.899 1103.61 158.951 1103.16 157.934C1111.28 156.122 1119.73 152.822 1127.64 150.191ZM1157.49 241.087C1148.09 242.612 1139.71 247.503 1130.63 249.216C1132.31 252.592 1132.76 306.581 1131.33 311.155C1131.17 311.655 1130.95 312.124 1130.7 312.583C1142.94 316.685 1151.77 324.91 1165.65 324.687C1167.6 324.656 1170.31 324.713 1172.09 323.903C1172.37 323.775 1172.53 323.641 1172.79 323.459C1180.55 322.671 1187.62 318.23 1192.49 312.228C1200.51 302.348 1202.45 288.193 1201.15 275.876C1200.02 265.213 1195.9 255.031 1187.36 248.197C1179.3 241.742 1169.1 239.74 1158.98 240.893Q1158.23 240.978 1157.49 241.087Z"/>
	<path fill="#FEFEFE" transform="scale(1.03694 1.03694)" d="M155.098 171.426C174.547 172.898 194.924 171.742 214.455 171.746C262.295 171.755 310.301 170.788 358.112 171.884C356.538 180.126 356.019 188.917 355.107 197.268L350.015 244.149L334.129 390.398C333.651 396.77 333.731 404.262 330.711 410.038C329.508 412.34 327.47 415.001 324.872 415.751C315.746 418.385 268.655 416.815 255.357 416.825C235.802 416.838 215.533 417.943 196.052 416.684C192.003 416.422 186.953 415.973 183.333 414.043C180.962 411.288 179.554 409.043 178.946 405.388C176.057 388.049 175.564 369.797 173.905 352.269L164.837 264.486L158.426 204.158C157.233 193.425 155.24 182.204 155.098 171.426ZM271.007 191.367C270.347 199.36 270.749 207.638 270.764 215.66L270.837 258.247L270.809 396.741C274.425 396.821 277.97 396.893 281.569 396.483L281.339 191.362C277.934 191.388 274.396 191.611 271.007 191.367ZM240.758 191.398L230.453 191.443L230.431 352.483C230.43 358.421 229.441 392.119 230.429 395.359C230.532 395.696 230.973 396.209 231.175 396.525L231.685 396.601C235.058 396.786 238.275 396.786 241.641 396.489C240.135 374.531 242.448 193.997 240.758 191.398ZM183.867 191.487C188.523 259.883 194.677 328.182 199.035 396.6L208.691 396.656C209.096 390.596 208.146 384.12 207.686 378.045L205.14 344.596L197.698 243.986C196.397 226.595 194.293 208.858 193.898 191.45L183.867 191.487ZM318.135 191.379L308.207 327.109C306.514 350.106 303.836 373.457 303.279 396.479L313.195 396.927C314.507 356.801 318.657 316.359 321.634 276.296L325.602 223.275C326.399 212.71 326.808 201.874 328.408 191.406C325.01 191.408 321.523 191.577 318.135 191.379Z"/>
</svg>
